<svg width="110" height="18" viewBox="0 0 110 18" fill="none" xmlns="http://www.w3.org/2000/svg">
<path d="M1.56374 14V3.09091H3.20969V12.5831H8.15288V14H1.56374ZM13.429 14.1651C12.6229 14.1651 11.9286 13.9929 11.3462 13.6484C10.7674 13.3004 10.32 12.8121 10.0039 12.1836C9.69141 11.5515 9.53516 10.8111 9.53516 9.96236C9.53516 9.12429 9.69141 8.38565 10.0039 7.74645C10.32 7.10724 10.7603 6.60831 11.3249 6.24964C11.8931 5.89098 12.5572 5.71165 13.3171 5.71165C13.7788 5.71165 14.2262 5.788 14.6594 5.9407C15.0927 6.09339 15.4815 6.3331 15.826 6.6598C16.1705 6.98651 16.4421 7.41087 16.641 7.93288C16.8398 8.45135 16.9393 9.08168 16.9393 9.82386V10.3885H10.4354V9.19531H15.3786C15.3786 8.77628 15.2933 8.40518 15.1229 8.08203C14.9524 7.75533 14.7127 7.49787 14.4038 7.30966C14.0984 7.12145 13.7397 7.02734 13.3278 7.02734C12.8803 7.02734 12.4897 7.13743 12.1559 7.3576C11.8256 7.57422 11.57 7.85831 11.3888 8.20987C11.2113 8.55788 11.1225 8.93608 11.1225 9.34446V10.2766C11.1225 10.8235 11.2184 11.2887 11.4102 11.6722C11.6055 12.0558 11.8771 12.3487 12.2251 12.5511C12.5732 12.75 12.9798 12.8494 13.445 12.8494C13.7468 12.8494 14.022 12.8068 14.2706 12.7216C14.5192 12.6328 14.734 12.5014 14.9151 12.3274C15.0962 12.1534 15.2347 11.9386 15.3306 11.6829L16.8381 11.9545C16.7173 12.3984 16.5007 12.7873 16.1882 13.1211C15.8793 13.4513 15.4904 13.7088 15.0217 13.8935C14.5565 14.0746 14.0256 14.1651 13.429 14.1651ZM21.0874 14.1811C20.569 14.1811 20.1002 14.0852 19.6812 13.8935C19.2622 13.6982 18.9301 13.4158 18.6851 13.0465C18.4436 12.6772 18.3229 12.2244 18.3229 11.6882C18.3229 11.2266 18.4117 10.8466 18.5892 10.5483C18.7668 10.25 19.0065 10.0138 19.3083 9.83984C19.6102 9.66584 19.9475 9.53445 20.3204 9.44567C20.6933 9.35689 21.0732 9.28942 21.4603 9.24325C21.9504 9.18643 22.3481 9.14027 22.6535 9.10476C22.9589 9.0657 23.1808 9.00355 23.3193 8.91832C23.4578 8.8331 23.5271 8.6946 23.5271 8.50284V8.46555C23.5271 8.00035 23.3957 7.63991 23.1329 7.38423C22.8737 7.12855 22.4866 7.00071 21.9717 7.00071C21.4355 7.00071 21.0129 7.11967 20.7039 7.3576C20.3985 7.59197 20.1872 7.85298 20.07 8.14062L18.5732 7.79972C18.7508 7.30256 19.01 6.90128 19.3509 6.59588C19.6954 6.28693 20.0914 6.06321 20.5388 5.92472C20.9862 5.78267 21.4568 5.71165 21.9504 5.71165C22.2771 5.71165 22.6233 5.75071 22.9891 5.82884C23.3584 5.90341 23.7029 6.0419 24.0225 6.24432C24.3456 6.44673 24.6102 6.73615 24.8161 7.11257C25.0221 7.48544 25.1251 7.97017 25.1251 8.56676V14H23.5697V12.8814H23.5058C23.4028 13.0874 23.2483 13.2898 23.0423 13.4886C22.8364 13.6875 22.5718 13.8526 22.2487 13.984C21.9255 14.1154 21.5384 14.1811 21.0874 14.1811ZM21.4337 12.9027C21.874 12.9027 22.2504 12.8157 22.5629 12.6417C22.879 12.4677 23.1187 12.2404 23.282 11.9599C23.449 11.6758 23.5324 11.3722 23.5324 11.049V9.99432C23.4756 10.0511 23.3655 10.1044 23.2021 10.1541C23.0423 10.2003 22.8595 10.2411 22.6535 10.2766C22.4475 10.3086 22.2469 10.3388 22.0516 10.3672C21.8563 10.392 21.6929 10.4134 21.5615 10.4311C21.2526 10.4702 20.9703 10.5359 20.7146 10.6282C20.4624 10.7205 20.26 10.8537 20.1073 11.0277C19.9582 11.1982 19.8836 11.4254 19.8836 11.7095C19.8836 12.1037 20.0292 12.402 20.3204 12.6044C20.6116 12.8033 20.9827 12.9027 21.4337 12.9027ZM27.2464 14V5.81818H28.7859V7.1179H28.8711C29.0202 6.67756 29.283 6.33132 29.6594 6.07919C30.0394 5.82351 30.4691 5.69567 30.9485 5.69567C31.0479 5.69567 31.1651 5.69922 31.3001 5.70632C31.4386 5.71342 31.5469 5.7223 31.625 5.73295V7.25639C31.5611 7.23864 31.4474 7.21911 31.2841 7.1978C31.1207 7.17294 30.9574 7.16051 30.794 7.16051C30.4176 7.16051 30.082 7.24041 29.7873 7.40021C29.4961 7.55646 29.2653 7.77486 29.0948 8.0554C28.9244 8.33239 28.8391 8.64844 28.8391 9.00355V14H27.2464ZM34.596 9.14205V14H33.0033V5.81818H34.532V7.14986H34.6333C34.8215 6.71662 35.1162 6.36861 35.5175 6.10582C35.9223 5.84304 36.4319 5.71165 37.0463 5.71165C37.6038 5.71165 38.0921 5.82884 38.5111 6.06321C38.9301 6.29403 39.2551 6.63849 39.4859 7.09659C39.7167 7.55469 39.8321 8.12109 39.8321 8.79581V14H38.2394V8.98757C38.2394 8.39453 38.085 7.93111 37.776 7.5973C37.4671 7.25994 37.0427 7.09126 36.5029 7.09126C36.1336 7.09126 35.8051 7.17116 35.5175 7.33097C35.2334 7.49077 35.0079 7.72514 34.841 8.03409C34.6776 8.33949 34.596 8.70881 34.596 9.14205ZM46.0657 3.09091H48.0632L51.5362 11.571H51.6641L55.1371 3.09091H57.1346V14H55.5685V6.10582H55.4673L52.25 13.984H50.9503L47.733 6.1005H47.6317V14H46.0657V3.09091ZM62.8461 14.1651C62.0791 14.1651 61.4097 13.9893 60.838 13.6378C60.2662 13.2862 59.8224 12.7944 59.5063 12.1623C59.1903 11.5302 59.0322 10.7915 59.0322 9.94638C59.0322 9.09766 59.1903 8.35547 59.5063 7.71982C59.8224 7.08416 60.2662 6.59055 60.838 6.23899C61.4097 5.88743 62.0791 5.71165 62.8461 5.71165C63.6132 5.71165 64.2826 5.88743 64.8543 6.23899C65.426 6.59055 65.8699 7.08416 66.186 7.71982C66.502 8.35547 66.6601 9.09766 66.6601 9.94638C66.6601 10.7915 66.502 11.5302 66.186 12.1623C65.8699 12.7944 65.426 13.2862 64.8543 13.6378C64.2826 13.9893 63.6132 14.1651 62.8461 14.1651ZM62.8515 12.8281C63.3486 12.8281 63.7606 12.6967 64.0873 12.4339C64.414 12.1712 64.6555 11.8214 64.8117 11.3846C64.9715 10.9478 65.0514 10.4666 65.0514 9.94105C65.0514 9.41903 64.9715 8.93963 64.8117 8.50284C64.6555 8.0625 64.414 7.70916 64.0873 7.44283C63.7606 7.17649 63.3486 7.04332 62.8515 7.04332C62.3508 7.04332 61.9353 7.17649 61.605 7.44283C61.2783 7.70916 61.0351 8.0625 60.8753 8.50284C60.719 8.93963 60.6409 9.41903 60.6409 9.94105C60.6409 10.4666 60.719 10.9478 60.8753 11.3846C61.0351 11.8214 61.2783 12.1712 61.605 12.4339C61.9353 12.6967 62.3508 12.8281 62.8515 12.8281ZM68.4379 14V5.81818H69.9773V7.1179H70.0625C70.2116 6.67756 70.4744 6.33132 70.8509 6.07919C71.2308 5.82351 71.6605 5.69567 72.1399 5.69567C72.2393 5.69567 72.3565 5.69922 72.4915 5.70632C72.63 5.71342 72.7383 5.7223 72.8164 5.73295V7.25639C72.7525 7.23864 72.6388 7.21911 72.4755 7.1978C72.3121 7.17294 72.1488 7.16051 71.9854 7.16051C71.609 7.16051 71.2734 7.24041 70.9787 7.40021C70.6875 7.55646 70.4567 7.77486 70.2862 8.0554C70.1158 8.33239 70.0305 8.64844 70.0305 9.00355V14H68.4379ZM77.428 14.1651C76.6219 14.1651 75.9276 13.9929 75.3453 13.6484C74.7664 13.3004 74.319 12.8121 74.0029 12.1836C73.6904 11.5515 73.5342 10.8111 73.5342 9.96236C73.5342 9.12429 73.6904 8.38565 74.0029 7.74645C74.319 7.10724 74.7593 6.60831 75.324 6.24964C75.8921 5.89098 76.5562 5.71165 77.3161 5.71165C77.7778 5.71165 78.2252 5.788 78.6585 5.9407C79.0917 6.09339 79.4806 6.3331 79.825 6.6598C80.1695 6.98651 80.4411 7.41087 80.64 7.93288C80.8389 8.45135 80.9383 9.08168 80.9383 9.82386V10.3885H74.4344V9.19531H79.3776C79.3776 8.77628 79.2923 8.40518 79.1219 8.08203C78.9514 7.75533 78.7117 7.49787 78.4028 7.30966C78.0974 7.12145 77.7387 7.02734 77.3268 7.02734C76.8794 7.02734 76.4887 7.13743 76.1549 7.3576C75.8247 7.57422 75.569 7.85831 75.3879 8.20987C75.2103 8.55788 75.1215 8.93608 75.1215 9.34446V10.2766C75.1215 10.8235 75.2174 11.2887 75.4092 11.6722C75.6045 12.0558 75.8762 12.3487 76.2242 12.5511C76.5722 12.75 76.9788 12.8494 77.444 12.8494C77.7458 12.8494 78.021 12.8068 78.2696 12.7216C78.5182 12.6328 78.733 12.5014 78.9142 12.3274C79.0953 12.1534 79.2338 11.9386 79.3296 11.6829L80.8371 11.9545C80.7164 12.3984 80.4997 12.7873 80.1872 13.1211C79.8783 13.4513 79.4894 13.7088 79.0207 13.8935C78.5555 14.0746 78.0246 14.1651 77.428 14.1651Z" fill="#42424A"/>
<g clip-path="url(#clip0_0_14)">
<path fill-rule="evenodd" clip-rule="evenodd" d="M108.75 8C108.75 9.79021 108.039 11.5071 106.773 12.773C105.507 14.0388 103.79 14.75 102 14.75C100.21 14.75 98.4929 14.0388 97.227 12.773C95.9612 11.5071 95.25 9.79021 95.25 8C95.25 6.20979 95.9612 4.4929 97.227 3.22703C98.4929 1.96116 100.21 1.25 102 1.25C103.79 1.25 105.507 1.96116 106.773 3.22703C108.039 4.4929 108.75 6.20979 108.75 8ZM110 8C110 10.1217 109.157 12.1566 107.657 13.6569C106.157 15.1571 104.122 16 102 16C99.8783 16 97.8434 15.1571 96.3431 13.6569C94.8429 12.1566 94 10.1217 94 8C94 5.87827 94.8429 3.84344 96.3431 2.34315C97.8434 0.842855 99.8783 0 102 0C104.122 0 106.157 0.842855 107.657 2.34315C109.157 3.84344 110 5.87827 110 8ZM101.47 5.53L103.19 7.25H98V8.75H103.19L101.47 10.47L102.53 11.53L105.53 8.53C105.67 8.38937 105.749 8.19875 105.749 8C105.749 7.80125 105.67 7.61063 105.53 7.47L102.53 4.47L101.47 5.53Z" fill="#42424A"/>
</g>
<defs>
<clipPath id="clip0_0_14">
<rect width="16" height="16" fill="white" transform="translate(94)"/>
</clipPath>
</defs>
</svg>
