<svg width="1353" height="710" viewBox="0 0 1353 710" fill="none" xmlns="http://www.w3.org/2000/svg">
<path d="M-91.9932 0H1353V480H-91.9932V0Z" fill="url(#paint0_linear_0_183)"/>
<mask id="mask0_0_183" style="mask-type:alpha" maskUnits="userSpaceOnUse" x="-94" y="0" width="1445" height="710">
<path d="M-94 0H1350.99V710H-94V0Z" fill="#DD2679"/>
</mask>
<g mask="url(#mask0_0_183)">
<path d="M-94 0H1350.99V362.011L-94 753.339V0Z" fill="url(#paint1_radial_0_183)"/>
<g filter="url(#filter0_f_0_183)">
<path d="M-246.527 1010.83L1373.07 735.495V234.544C1280.09 292.329 1053.2 422.687 889.44 481.833C684.741 555.765 374.318 410.45 223.606 379.858C103.036 355.384 -140.054 449.541 -246.527 499.678V1010.83Z" fill="url(#paint2_linear_0_183)"/>
</g>
</g>
<defs>
<filter id="filter0_f_0_183" x="-326.527" y="154.544" width="1779.6" height="936.284" filterUnits="userSpaceOnUse" color-interpolation-filters="sRGB">
<feFlood flood-opacity="0" result="BackgroundImageFix"/>
<feBlend mode="normal" in="SourceGraphic" in2="BackgroundImageFix" result="shape"/>
<feGaussianBlur stdDeviation="40" result="effect1_foregroundBlur_0_183"/>
</filter>
<linearGradient id="paint0_linear_0_183" x1="1353" y1="240.431" x2="129.031" y2="559.831" gradientUnits="userSpaceOnUse">
<stop stop-color="#E73635"/>
<stop offset="1" stop-color="#6AD5FF"/>
</linearGradient>
<radialGradient id="paint1_radial_0_183" cx="0" cy="0" r="1" gradientUnits="userSpaceOnUse" gradientTransform="translate(1327.91 149.776) rotate(-173.858) scale(1399.84 4313.8)">
<stop stop-color="#8FB3FF"/>
<stop offset="0.277176" stop-color="#9D6BE8"/>
<stop offset="0.542906" stop-color="#DE2778"/>
<stop offset="1" stop-color="#B03DE2"/>
</radialGradient>
<linearGradient id="paint2_linear_0_183" x1="1319.08" y1="466.537" x2="-317.162" y2="783.358" gradientUnits="userSpaceOnUse">
<stop offset="0.0129279" stop-color="#E37777"/>
<stop offset="0.380614" stop-color="#F2554C"/>
<stop offset="0.61473" stop-color="#FEC458"/>
<stop offset="0.842802" stop-color="#FEC957"/>
<stop offset="1" stop-color="#DB788D"/>
</linearGradient>
</defs>
</svg>
